<?xml version="1.0" encoding="utf-8"?>
<!-- Generator: Adobe Illustrator 16.0.2, SVG Export Plug-In . SVG Version: 6.00 Build 0)  -->
<!DOCTYPE svg PUBLIC "-//W3C//DTD SVG 1.1//EN" "http://www.w3.org/Graphics/SVG/1.1/DTD/svg11.dtd">
<svg version="1.1" id="Layer_1" xmlns="http://www.w3.org/2000/svg" xmlns:xlink="http://www.w3.org/1999/xlink" x="0px" y="0px"
	 width="5.703px" height="10px" viewBox="0 0 5.703 10" enable-background="new 0 0 5.703 10" xml:space="preserve">
<g>
	<path fill="#FFFFFF" d="M0,5c0-0.195,0.071-0.358,0.215-0.488l4.297-4.297C4.642,0.072,4.805,0,5,0s0.361,0.068,0.498,0.205
		s0.205,0.303,0.205,0.498S5.632,1.062,5.488,1.191L1.699,5l3.789,3.809c0.144,0.13,0.215,0.293,0.215,0.488
		S5.635,9.658,5.498,9.795S5.195,10,5,10S4.642,9.928,4.512,9.785L0.215,5.488C0.071,5.358,0,5.195,0,5z"/>
</g>
</svg>
