<?xml version="1.0" encoding="utf-8"?>
<!-- Generator: Adobe Illustrator 16.0.2, SVG Export Plug-In . SVG Version: 6.00 Build 0)  -->
<!DOCTYPE svg PUBLIC "-//W3C//DTD SVG 1.1//EN" "http://www.w3.org/Graphics/SVG/1.1/DTD/svg11.dtd">
<svg version="1.1" id="Layer_1" xmlns="http://www.w3.org/2000/svg" xmlns:xlink="http://www.w3.org/1999/xlink" x="0px" y="0px"
	 width="22px" height="22px" viewBox="0 0 22 22" enable-background="new 0 0 22 22" xml:space="preserve">
<g>
	<path fill="#FFFFFF" d="M22,11c0,2.206-0.616,4.24-1.848,6.102l-0.086,0.129c0,0.029-0.015,0.058-0.043,0.086
		c-0.029,0.029-0.058,0.058-0.086,0.086c-0.029,0.029-0.058,0.058-0.086,0.086c-0.029,0.058-0.043,0.101-0.043,0.129
		c-0.086,0.115-0.187,0.229-0.301,0.344c0,0.029-0.029,0.058-0.086,0.086c-0.401,0.516-0.859,0.975-1.375,1.375
		c0,0.028-0.029,0.057-0.086,0.086c-0.115,0.086-0.229,0.172-0.344,0.258l-0.129,0.129c-0.144,0.086-0.258,0.157-0.344,0.215
		c0,0.028-0.029,0.057-0.086,0.086c-0.029,0-0.058,0.014-0.086,0.043c-0.144,0.086-0.301,0.172-0.473,0.258
		c-0.144,0.086-0.244,0.157-0.301,0.215c-0.029,0-0.101,0.028-0.215,0.086c-0.115,0.057-0.229,0.114-0.344,0.172
		c-0.058,0.028-0.129,0.057-0.215,0.086c-0.115,0.057-0.258,0.114-0.43,0.172l-0.043,0.043c-0.029,0-0.058,0-0.086,0
		c-0.401,0.172-0.803,0.301-1.203,0.387l-0.043,0.043c-0.172,0.028-0.358,0.057-0.559,0.086c-0.029,0.028-0.072,0.043-0.129,0.043
		c-0.172,0.028-0.33,0.057-0.473,0.086c-0.086,0-0.144,0-0.172,0c-0.144,0.028-0.301,0.043-0.473,0.043
		c-0.029,0-0.086,0.014-0.172,0.043C11.415,22,11.2,22,11,22c-0.172,0-0.387,0-0.645,0l-0.172-0.043
		c-0.172,0-0.33-0.015-0.473-0.043c-0.029,0-0.086,0-0.172,0c-0.144-0.029-0.301-0.058-0.473-0.086
		c-0.086,0-0.129-0.015-0.129-0.043c-0.201-0.029-0.387-0.058-0.559-0.086l-0.043-0.043c-0.401-0.086-0.803-0.215-1.203-0.387
		c-0.029,0-0.072-0.015-0.129-0.043c-0.172-0.058-0.315-0.115-0.43-0.172c-0.058-0.029-0.129-0.058-0.215-0.086
		c-0.115-0.058-0.301-0.144-0.559-0.258c-0.086-0.058-0.187-0.129-0.301-0.215c-0.172-0.086-0.33-0.172-0.473-0.258l-0.086-0.043
		l-0.086-0.086c-0.086-0.058-0.201-0.129-0.344-0.215l-0.129-0.129c-0.115-0.086-0.229-0.172-0.344-0.258
		c-0.058-0.029-0.086-0.058-0.086-0.086c-0.516-0.4-0.975-0.859-1.375-1.375l-0.086-0.086c-0.115-0.114-0.215-0.229-0.301-0.344
		l-0.043-0.129L1.934,17.23l-0.086-0.129C0.615,15.24,0,13.206,0,11c0-3.036,1.074-5.629,3.223-7.777S7.963,0,11,0
		c3.036,0,5.629,1.074,7.777,3.223S22,7.964,22,11z M7.348,1.418C5.371,2.163,3.773,3.409,2.557,5.156
		C1.339,6.904,0.73,8.852,0.73,11c0,1.776,0.443,3.452,1.332,5.027c0.314-1.06,0.909-1.919,1.783-2.578
		c0.873-0.658,1.869-0.988,2.986-0.988h0.344h1.848c0.086,0,0.129-0.043,0.129-0.129v-0.215c0-0.086-0.015-0.129-0.043-0.129
		c-0.516-0.2-0.996-0.537-1.439-1.01c-0.444-0.473-0.824-1.01-1.139-1.611C6.216,8.766,5.965,8.121,5.779,7.434
		C5.593,6.746,5.5,6.102,5.5,5.5c0-1.518,0.544-2.821,1.633-3.91L7.348,1.418z M19.25,17.102c0.028-0.057,0.071-0.129,0.129-0.215
		c-0.144-1.06-0.616-1.94-1.418-2.643c-0.803-0.701-1.733-1.053-2.793-1.053h-1.074L11,16.285l-3.094-3.094H6.832
		c-1.061,0-1.991,0.352-2.793,1.053c-0.803,0.702-1.275,1.583-1.418,2.643c0.057,0.086,0.1,0.158,0.129,0.215l0.086,0.086
		c0.086,0.144,0.172,0.258,0.258,0.344c0.286,0.373,0.602,0.717,0.945,1.031c0.028,0,0.057,0.015,0.086,0.043
		c0.086,0.086,0.186,0.172,0.301,0.258l0.086,0.086c0.114,0.115,0.229,0.201,0.344,0.258l0.086,0.086
		c0.057,0.028,0.114,0.071,0.172,0.129v-1.805h0.773v2.277H5.93c0.114,0.086,0.2,0.143,0.258,0.172
		c0.028,0.028,0.1,0.057,0.215,0.086c0.114,0.057,0.215,0.114,0.301,0.172c0.086,0.028,0.143,0.057,0.172,0.086
		c0.143,0.057,0.286,0.114,0.43,0.172l0.086,0.043c0.372,0.143,0.744,0.258,1.117,0.344c0.028,0,0.057,0,0.086,0
		c0.172,0.057,0.329,0.1,0.473,0.129c0.028,0,0.086,0,0.172,0c0.143,0.028,0.286,0.057,0.43,0.086c0.086,0,0.143,0,0.172,0
		c0.114,0.028,0.258,0.043,0.43,0.043c0.086,0,0.129,0.014,0.129,0.043c0.229,0,0.437,0,0.623,0c0.186,0,0.379,0,0.58,0
		c0-0.029,0.043-0.043,0.129-0.043c0.172,0,0.314-0.015,0.43-0.043c0.028,0,0.086,0,0.172,0c0.143-0.029,0.286-0.058,0.43-0.086
		c0.086,0,0.143,0,0.172,0c0.143-0.029,0.301-0.072,0.473-0.129c0.028,0,0.057,0,0.086,0c0.372-0.086,0.744-0.201,1.117-0.344
		c0.028-0.029,0.057-0.043,0.086-0.043c0.143-0.058,0.286-0.115,0.43-0.172c0.028-0.029,0.086-0.058,0.172-0.086
		c0.086-0.058,0.186-0.115,0.301-0.172c0.086-0.029,0.157-0.058,0.215-0.086c0.057-0.029,0.143-0.086,0.258-0.172h0.043v-2.277
		h0.773v1.805c0.057-0.058,0.114-0.101,0.172-0.129l0.086-0.086c0.114-0.057,0.229-0.143,0.344-0.258
		c0.028-0.028,0.057-0.057,0.086-0.086c0.114-0.086,0.215-0.172,0.301-0.258l0.086-0.043c0.314-0.314,0.63-0.658,0.945-1.031
		c0.086-0.086,0.172-0.2,0.258-0.344C19.192,17.159,19.221,17.131,19.25,17.102z M9.367,11.301c0.344,0.144,0.516,0.416,0.516,0.816
		v0.215c0,0.229-0.079,0.43-0.236,0.602c-0.158,0.172-0.365,0.258-0.623,0.258H8.938L11,15.254l2.063-2.063h-0.086
		c-0.258,0-0.466-0.086-0.623-0.258c-0.158-0.172-0.236-0.372-0.236-0.602v-0.215c0-0.4,0.186-0.673,0.559-0.816
		c0.888-0.344,1.64-1.146,2.256-2.406c0.615-1.26,0.895-2.478,0.838-3.652c-0.745-0.945-1.719-1.618-2.922-2.02
		C12.303,4.254,11.443,4.77,10.27,4.77c-0.43,0-0.831-0.086-1.203-0.258C8.607,4.312,8.143,4.254,7.67,4.34S6.803,4.655,6.488,5.027
		L6.23,5.371c0,0.058,0,0.101,0,0.129c0,1.117,0.308,2.285,0.924,3.502C7.77,10.22,8.508,10.986,9.367,11.301z M11,0.73
		c-1.318,0-2.436,0.458-3.352,1.375c-0.573,0.573-0.975,1.246-1.203,2.02C7.333,3.466,8.307,3.38,9.367,3.867
		c0.286,0.115,0.587,0.172,0.902,0.172c0.286,0,0.565-0.057,0.838-0.172c0.271-0.114,0.516-0.279,0.73-0.494
		s0.365-0.451,0.451-0.709l0.129-0.301l0.344,0.086c1.002,0.287,1.919,0.773,2.75,1.461c-0.315-0.859-0.831-1.575-1.547-2.148
		c-0.717-0.573-1.519-0.902-2.406-0.988c-0.172-0.028-0.344-0.043-0.516-0.043H11z M21.27,11c0-1.432-0.279-2.793-0.838-4.082
		s-1.34-2.406-2.342-3.352c-1.003-0.945-2.148-1.661-3.438-2.148c1.031,0.917,1.633,2.048,1.805,3.395
		c0.172,1.347-0.086,2.771-0.773,4.275s-1.604,2.471-2.75,2.9c-0.058,0-0.086,0.043-0.086,0.129v0.215
		c0,0.086,0.043,0.129,0.129,0.129h1.848h0.344c1.117,0,2.112,0.33,2.986,0.988c0.873,0.659,1.468,1.519,1.783,2.578
		C20.825,14.452,21.27,12.776,21.27,11z"/>
</g>
</svg>
