<?xml version="1.0" encoding="utf-8"?>
<!-- Generator: Adobe Illustrator 16.0.2, SVG Export Plug-In . SVG Version: 6.00 Build 0)  -->
<!DOCTYPE svg PUBLIC "-//W3C//DTD SVG 1.1//EN" "http://www.w3.org/Graphics/SVG/1.1/DTD/svg11.dtd">
<svg version="1.1" id="Layer_1" xmlns="http://www.w3.org/2000/svg" xmlns:xlink="http://www.w3.org/1999/xlink" x="0px" y="0px"
	 width="5.703px" height="10px" viewBox="0 0 5.703 10" enable-background="new 0 0 5.703 10" xml:space="preserve">
<g>
	<path fill="#FFFFFF" d="M5.488,5.488L1.191,9.785C1.062,9.929,0.898,10,0.703,10S0.342,9.932,0.205,9.795S0,9.492,0,9.297
		s0.071-0.358,0.215-0.488L4.004,5L0.215,1.191C0.071,1.062,0,0.898,0,0.703s0.068-0.361,0.205-0.498S0.508,0,0.703,0
		s0.358,0.072,0.488,0.215l4.297,4.297C5.632,4.642,5.703,4.805,5.703,5S5.632,5.358,5.488,5.488z"/>
</g>
</svg>
